Coordinates
version=1
nRows=36
nColumns=33
inDegrees=yes

Units are S.I. units (second, meters, Newtons, ...)
Angles are in degrees.

endheader
time	ground_thorax_rot_x	ground_thorax_rot_y	ground_thorax_rot_z	ground_thorax_tx	ground_thorax_ty	ground_thorax_tz	clav_prot_r	clav_elev_r	scapula_abduction_r	scapula_elevation_r	scapula_upward_rot_r	scapula_winging_r	shoulder_elv_r	plane_of_elev_r	axial_rot_r	elbow_flexion_r	pro_sup_r	wrist_flex_r	wrist_dev_r	clav_prot_l	clav_elev_l	scapula_abduction_l	scapula_elevation_l	scapula_upward_rot_l	scapula_winging_l	shoulder_elv_l	plane_of_elev_l	axial_rot_l	elbow_flexion_l	pro_sup_l	wrist_flex_l	wrist_dev_l	
5.1600	2.051641	2.207407	13.544723	-0.126254	1.036391	0.027974	3.392307	15.118915	15.721180	10.026303	24.130623	-9.950838	3.314351	-71.553924	51.625811	49.342276	-25.182637	70.000000	-25.000000	10.364953	-3.427224	-15.349334	-22.522958	-43.881900	-1.291192	62.112038	-39.468609	-3.984944	69.172684	29.433844	0.053147	-25.000000	
5.1700	1.959871	2.491489	13.508328	-0.126359	1.036463	0.028232	2.837018	14.821630	14.944168	9.716552	24.341569	-9.782008	3.817832	-71.518554	52.423065	48.913563	-24.094634	70.000000	-25.000000	10.549521	-3.512397	-15.714557	-22.477988	-43.987980	-1.138837	61.947110	-39.219100	-3.978106	68.678987	28.329343	-1.372576	-25.000000	
5.1800	1.873859	2.793282	13.446475	-0.126414	1.036612	0.028476	2.244668	14.503288	14.212494	9.349992	24.670219	-9.644104	4.212302	-71.555283	53.141529	48.743786	-24.003424	70.000000	-25.000000	10.732347	-3.637997	-16.070384	-22.383625	-44.071483	-0.981519	61.813160	-38.983856	-3.987447	68.194259	27.189259	-2.758947	-25.000000	
5.1900	1.797253	3.002995	13.442940	-0.126523	1.036590	0.028680	1.904084	14.262257	13.733315	9.120154	24.766856	-9.536143	4.461712	-71.434334	53.565068	48.760090	-24.720077	70.000000	-25.000000	10.849822	-3.723169	-16.304002	-22.325750	-44.140261	-0.880149	61.716208	-38.801395	-3.926924	67.871816	26.568401	-3.649545	-25.000000	
5.2000	1.744511	3.157602	13.462310	-0.126625	1.036471	0.028873	1.695980	14.086848	13.420159	8.967612	24.789549	-9.459815	4.600271	-71.280794	53.800365	48.881129	-25.745457	70.000000	-25.000000	10.917003	-3.796314	-16.438251	-22.269332	-44.179882	-0.818905	61.648454	-38.646363	-3.837213	67.636697	26.228407	-4.212568	-25.000000	
5.2100	1.706797	3.263075	13.503947	-0.126719	1.036254	0.029055	1.603613	13.965071	13.254871	8.879021	24.748794	-9.412167	4.650461	-71.116117	53.876445	49.088823	-26.957463	70.000000	-25.000000	10.944878	-3.857004	-16.494583	-22.216720	-44.196158	-0.789335	61.615094	-38.528866	-3.730805	67.496858	26.120526	-4.492972	-25.000000	
5.2200	1.691722	3.337028	13.546386	-0.126771	1.035980	0.029253	1.564754	13.893492	13.161951	8.836309	24.695738	-9.380854	4.675508	-70.981879	53.876366	49.264737	-27.811604	69.999999	-25.000000	10.942641	-3.913172	-16.489195	-22.159205	-44.187988	-0.783464	61.600541	-38.421231	-3.613955	67.388078	26.117833	-4.610255	-25.000000	
5.2300	1.684749	3.399278	13.580522	-0.126779	1.035680	0.029466	1.532702	13.841186	13.090960	8.803898	24.661176	-9.357712	4.717840	-70.905918	53.868041	49.403497	-28.273168	69.999999	-25.000000	10.935533	-3.968611	-16.471798	-22.097975	-44.169564	-0.781166	61.602761	-38.325382	-3.506732	67.300893	26.111550	-4.680717	-24.999999	
5.2400	1.681572	3.453623	13.604863	-0.126737	1.035365	0.029697	1.507218	13.800480	13.019153	8.784542	24.617349	-9.332174	4.810975	-70.866202	53.880609	49.483126	-28.291015	69.999998	-25.000000	10.931615	-4.016680	-16.460329	-22.044421	-44.152770	-0.777630	61.610705	-38.232418	-3.401473	67.224295	26.096449	-4.739366	-24.999999	
5.2500	1.666054	3.513785	13.620863	-0.126666	1.035051	0.029923	1.488576	13.741179	12.947248	8.757251	24.549006	-9.302638	4.972330	-70.855524	53.930872	49.610676	-28.281648	69.999996	-25.000000	10.952221	-4.057172	-16.498343	-22.005135	-44.154660	-0.756079	61.627261	-38.144925	-3.300348	67.183038	26.064178	-4.814491	-24.999998	
5.2600	1.644317	3.582782	13.623449	-0.126557	1.034767	0.030147	1.470497	13.663139	12.863842	8.721752	24.457322	-9.266005	5.220796	-70.870689	54.031174	49.793266	-28.244349	69.999992	-25.000000	10.998186	-4.092612	-16.588197	-21.978998	-44.178205	-0.715817	61.640945	-38.044606	-3.194272	67.157243	26.011117	-4.913476	-24.999997	
5.2700	1.604217	3.676658	13.618568	-0.126451	1.034512	0.030356	1.446887	13.524300	12.738530	8.656140	24.300648	-9.207776	5.705064	-70.944350	54.263854	50.126039	-28.130089	69.999985	-25.000000	11.105435	-4.121670	-16.805639	-21.981801	-44.260508	-0.629107	61.637703	-37.900669	-3.064874	67.164399	25.902707	-5.081831	-24.999995	
5.2800	1.551183	3.788643	13.609260	-0.126338	1.034299	0.030558	1.417585	13.339422	12.580492	8.566986	24.097038	-9.133204	6.378122	-71.063697	54.602853	50.584388	-27.953470	69.999973	-25.000000	11.262711	-4.146275	-17.127162	-22.007613	-44.391026	-0.504551	61.620527	-37.722094	-2.919272	67.203906	25.746982	-5.301208	-24.999992	
5.2900	1.488617	3.915374	13.597638	-0.126223	1.034132	0.030757	1.383928	13.121189	12.400403	8.459973	23.861771	-9.047754	7.201819	-71.218151	55.026700	51.148484	-27.726896	69.999952	-25.000000	11.462081	-4.169122	-17.534642	-22.049004	-44.557660	-0.347634	61.594818	-37.514370	-2.762906	67.277815	25.548547	-5.554058	-24.999986	
5.3000	1.435432	4.037630	13.575632	-0.126095	1.033992	0.030965	1.353791	12.934983	12.247816	8.367155	23.665482	-8.975988	7.987647	-71.364276	55.435942	51.722754	-27.511940	69.999914	-25.000000	11.664351	-4.194866	-17.943424	-22.082450	-44.713321	-0.187428	61.584456	-37.310022	-2.631168	67.394842	25.341121	-5.768895	-24.999974	
5.3100	1.392220	4.154846	13.547127	-0.125963	1.033879	0.031185	1.327403	12.780281	12.125440	8.287290	23.510348	-8.918955	8.730918	-71.499532	55.825372	52.300971	-27.308150	69.999845	-25.000000	11.869095	-4.228875	-18.350377	-22.099620	-44.850770	-0.023241	61.588984	-37.112459	-2.520311	67.555370	25.114454	-5.928209	-24.999954	
5.3200	1.369495	4.252789	13.506194	-0.125823	1.033771	0.031419	1.313786	12.700301	12.076264	8.240439	23.445912	-8.896012	9.291779	-71.592285	56.124955	52.809993	-27.150740	69.999723	-25.000000	12.048894	-4.273500	-18.694564	-22.082610	-44.931828	0.124684	61.624842	-36.948732	-2.455656	67.768935	24.886411	-5.969443	-24.999917	
5.3300	1.360888	4.344991	13.461971	-0.125682	1.033702	0.031665	1.305728	12.651606	12.068793	8.203280	23.431200	-8.892015	9.784110	-71.666508	56.380147	53.287824	-27.001869	69.999504	-25.000000	12.227875	-4.349812	-19.021611	-22.014863	-44.966912	0.277681	61.667558	-36.820315	-2.397262	68.023095	24.589258	-5.866265	-24.999852	
5.3400	1.363422	4.435782	13.412304	-0.125546	1.033646	0.031917	1.298724	12.630418	12.091160	8.174541	23.460902	-8.903169	10.237112	-71.722576	56.598350	53.756268	-26.843837	69.999111	-25.000000	12.407886	-4.450647	-19.337754	-21.906850	-44.964746	0.436095	61.722679	-36.708002	-2.339375	68.326061	24.220561	-5.627099	-24.999736	
5.3500	1.361020	4.536055	13.371231	-0.125407	1.033635	0.032175	1.278389	12.581766	12.085769	8.127705	23.475078	-8.904487	10.809377	-71.788024	56.841174	54.285738	-26.622851	69.998407	-24.999999	12.611563	-4.571604	-19.695869	-21.779538	-44.965207	0.615915	61.775073	-36.577798	-2.239317	68.650903	23.756845	-5.308542	-24.999526	
5.3600	1.354212	4.645496	13.336647	-0.125252	1.033645	0.032440	1.244020	12.519814	12.051872	8.072459	23.481484	-8.897007	11.464283	-71.847259	57.078238	54.862422	-26.313440	69.997147	-24.999999	12.820660	-4.696491	-20.063047	-21.648409	-44.965884	0.800620	61.848668	-36.410617	-2.114512	68.989300	23.225673	-4.902158	-24.999152	
5.3700	1.341850	4.757425	13.315453	-0.125060	1.033682	0.032717	1.196343	12.447538	11.991954	8.010378	23.482956	-8.881648	12.174727	-71.894775	57.294476	55.466165	-25.931928	69.994888	-24.999999	13.025599	-4.823456	-20.421406	-21.514869	-44.964268	0.982062	61.946146	-36.214824	-1.961606	69.325788	22.646449	-4.415032	-24.998481	
5.3800	1.330273	4.868530	13.298586	-0.124823	1.033700	0.033004	1.139252	12.394834	11.922720	7.958710	23.504403	-8.867123	12.879068	-71.917680	57.454393	56.093319	-25.500718	69.990845	-24.999998	13.207847	-4.940596	-20.739087	-21.391898	-44.961838	1.143725	62.095467	-35.973831	-1.800190	69.670884	22.065693	-3.857139	-24.997279	
5.3900	1.318922	4.967897	13.284952	-0.124547	1.033708	0.033302	1.080818	12.366444	11.866426	7.917924	23.555515	-8.860864	13.534843	-71.906170	57.544456	56.729186	-25.073320	69.983597	-24.999996	13.362618	-5.051782	-21.006323	-21.274284	-44.954518	1.282108	62.299971	-35.698230	-1.629858	70.012603	21.512126	-3.246807	-24.995126	
5.4000	1.310053	5.062380	13.270011	-0.124249	1.033718	0.033608	1.023383	12.343772	11.821805	7.877358	23.620373	-8.859756	14.197580	-71.866010	57.582330	57.397206	-24.625864	69.970626	-24.999994	13.504001	-5.174544	-21.248086	-21.145411	-44.943829	1.410264	62.557091	-35.389983	-1.452788	70.345693	20.919622	-2.467332	-24.991268	
5.4100	1.297775	5.146251	13.253257	-0.123942	1.033739	0.033911	0.972058	12.319463	11.806723	7.828709	23.704127	-8.869354	14.850658	-71.791292	57.589764	58.097008	-24.258036	69.947357	-24.999989	13.644363	-5.313509	-21.482206	-20.994519	-44.917350	1.539030	62.844601	-35.068618	-1.263667	70.667030	20.298837	-1.556308	-24.984364	
5.4200	1.289229	5.228341	13.233991	-0.123620	1.033779	0.034206	0.923133	12.296211	11.817149	7.772887	23.811520	-8.889463	15.490534	-71.675569	57.553886	58.854612	-24.178181	69.905774	-24.999980	13.786879	-5.475247	-21.716138	-20.818597	-44.882292	1.671017	63.167890	-34.720318	-1.074845	70.965983	19.643127	-0.469144	-24.971979	
5.4300	1.277131	5.295382	13.209528	-0.123277	1.033827	0.034481	0.882947	12.287013	11.879630	7.713403	23.964832	-8.930484	16.038066	-71.503110	57.469244	59.645335	-24.453179	69.831013	-24.999965	13.924731	-5.639866	-21.932050	-20.628087	-44.819088	1.799127	63.511627	-34.348102	-0.888709	71.231906	19.026765	0.680144	-24.949843	
5.4400	1.265275	5.354488	13.180774	-0.122918	1.033885	0.034732	0.849930	12.279621	11.985992	7.644067	24.151822	-8.988059	16.542179	-71.290882	57.346024	60.474524	-25.013451	69.697855	-24.999937	14.067520	-5.813044	-22.145214	-20.414662	-44.722305	1.931800	63.857914	-33.946210	-0.704318	71.449325	18.415234	1.936081	-24.910051	
5.4500	1.254891	5.387509	13.147312	-0.122536	1.033932	0.034943	0.839588	12.285085	12.174661	7.569201	24.387011	-9.074131	16.952258	-71.059732	57.180137	61.308945	-25.765950	69.457208	-24.999887	14.206077	-5.981652	-22.334919	-20.184369	-44.576399	2.060104	64.176651	-33.518067	-0.492279	71.614514	17.833484	3.309194	-24.839165	
5.4600	1.257477	5.403438	13.106879	-0.122137	1.033964	0.035114	0.851102	12.303932	12.436079	7.492496	24.661491	-9.184780	17.310504	-70.827284	56.953780	62.151942	-26.615512	69.032065	-24.999798	14.344454	-6.157920	-22.510645	-19.928783	-44.388869	2.188117	64.470890	-33.048363	-0.266217	71.715314	17.274203	4.817704	-24.711092	
5.4700	1.269657	5.396002	13.063496	-0.121731	1.033973	0.035241	0.891340	12.335688	12.779651	7.415206	24.970519	-9.321272	17.628948	-70.614092	56.666638	62.993199	-27.335797	68.253972	-24.999639	14.484058	-6.338190	-22.672747	-19.647873	-44.152105	2.316603	64.727043	-32.544430	-0.020360	71.750667	16.738218	6.478628	-24.484732	
5.4800	1.287319	5.373367	13.020526	-0.121344	1.033974	0.035325	0.958076	12.365434	13.187012	7.332507	25.291048	-9.475113	17.972598	-70.420789	56.303897	63.832696	-27.725106	66.927486	-24.999353	14.635501	-6.530784	-22.841647	-19.335588	-43.871680	2.454989	64.953756	-32.004540	0.217812	71.715630	16.221659	8.265339	-24.070726	
5.4900	1.302833	5.334767	12.981813	-0.120978	1.033974	0.035359	1.052610	12.384428	13.657170	7.239507	25.615563	-9.644498	18.330767	-70.235273	55.869685	64.649770	-27.786240	65.025913	-24.998841	14.799689	-6.736833	-23.021418	-18.994214	-43.555108	2.603675	65.155609	-31.433842	0.445858	71.607179	15.721780	10.123439	-23.453241	
5.5000	1.313595	5.287605	12.939407	-0.120637	1.033978	0.035348	1.161154	12.392301	14.170252	7.133884	25.951906	-9.825230	18.691881	-70.025396	55.348844	65.445296	-27.619986	62.490841	-24.997923	14.978137	-6.956792	-23.218118	-18.627286	-43.211707	2.763893	65.345868	-30.817098	0.636750	71.414883	15.263562	11.877264	-22.583383	
5.5100	1.307866	5.229434	12.908085	-0.120326	1.033974	0.035286	1.291037	12.379290	14.728350	7.012631	26.283171	-10.015402	19.041037	-69.783014	54.740295	66.200432	-27.181475	59.297498	-24.996281	15.172460	-7.186611	-23.438032	-18.243448	-42.852484	2.936406	65.526034	-30.167777	0.789777	71.136049	14.799711	13.505335	-21.467185	
